<?xml version="1.0" encoding="UTF-8"?>
<svg version="1.1" viewBox="0 0 2000 2000" width="500" height="500" xmlns="http://www.w3.org/2000/svg">
<path transform="translate(1013,792)" d="m0 0h6l5 5 4 9 5 22 5 10 3 3v2l4 2 5 4 11 5 16 5 7 4 7 7 1 3v220l-2 9-5 12-6 8-8 8-16 8-15 3h-15l-15-3-12-6-10-9-7-8-4-8-3-15v-245l2-20 4-10 7-9 10-9 12-6z" fill="#CB6AE0"/>
<path transform="translate(1187,884)" d="m0 0h24l7 2 6 7 8 14 14 14 6 9 6 16 7 22 5 15 8 33 4 12 1 12v12l3 12v2l2-1v-6l3 3 1 8 2-2 5-29 3-23 5-35 10-74 3-20 2-3h24l2 1 1 14 9 3 4 4 3 7 7 6 1 6-8 30-3 17-1 10-1 25-3 31-5 35-2 16v25l-4 13-6 6-6 2h-18l-9-3-8-6-10-9v-2h-2l-5-6-6-2-6-9-6-15-7-21-19-53-13-35-7-17-3-6v-2h-3l-1 3v30l2 8 3 10v20l-6 44-4 25-3 36-2 5-4 4h-7l-7-3-4-4v-2l-5-2-6-3v-2l3-1-3-3-5-2-3-3-13-1-1-5 5-35 5-39 7-49 7-51 5-33 3-8 5-3z" fill="#CB6AE1"/>
<path transform="translate(1652,880)" d="m0 0 20 1 16 3 13 5 9 6 7 6 10 13 5 6 11 9 8 8 5 10 3 12 1 7 1 17v14l-2 26-5 29-6 22-6 16-9 16-11 12-9 7-16 8-21 5-7 1h-27l-16-4-12-5-14-9-16-16-11-8-7-7-7-11-4-11-3-16-1-25 1-22 5-30 6-25 6-17 8-16 8-10 5-5 8-7 16-8 13-4 11-2zm13 43-13 3-11 8-7 9-8 16-5 15-6 29-3 21-1 15-1 43 2 2 7 2 14 1 15-2 14-5 9-6 8-8 8-14 7-21 6-28 4-32v-24l-2-11-4-9-3-3-13-1z" fill="#CB6AE1"/>
<path transform="translate(806,882)" d="m0 0h36l21 2 14 4 11 6 8 9 5 11 11 27 2 15-1 14-7 24-6 12h-3l-2-1v-2h-2v2l-6-2-2-4-4-4h-5l7 8 6 8 5 12 1 23v27l-8 18-8 10-9 8-12 5-26 8-13 2-18 1-21-2-11-2-2-4-5-3-22-6h-10l-1-3 4-25 6-41 3-22 5-34 3-22 8-57 3-19 1-1zm-17 25-3 1-2 9-2 26 1 19h2l-1 17h2l1-15 1 15 2 1 16 1h26l15-2 10-5 5-5 5-6 5-15 1-19-2-9-4-6-6-4-12-3zm86 87m-76 11-19 1 1 4-1 6 2 10v10l-3 19-2 10h-2l-2 11v5l-3 1 2 2 14 2h36l17-3 10-5 7-8 4-8 4-17v-19l-3-7-7-8-6-3-16-3zm-33 75 1 3h2l-1-3z" fill="#CB6AE1"/>
<path transform="translate(623,884)" d="m0 0h20l9 1 5 6 6 15 7 10 7 18 13 38 4 25 5 32 5 27 5 33 7 25 1 3v11l-9 1-10-6-3-3-3-5-9-6-9-2-4-8-2-6-3-19-4-18-5-12-11 7-9 2-29 2-12 2-3 1-9 20-6 11-8 25-5 13-5 7h-20l-1-1-1-8-10-4 1-3h4v-3l-6-2-1-3-8-2-10-1 2-6 14-30 13-28 16-34 15-31 13-28 13-27 13-28 5-8 3-2zm8 25-6 7-3 7 2 9 3 12-3 14-10 27-6 21-1 4 11 3 35 1 1-1-1-13-7-40-7-34-5-16z" fill="#CB6BE1"/>
<path transform="translate(291,881)" d="m0 0h23l24 3 12 3 12 5 10 7 8 9 8 11 14 14 7 14 3 20 1 12v23l-4 38-4 18-8 22-4 7-3 9-4 7-4 4h-5v-3l-5 1-14 8-10 4-5-1 1-2-9-1h-14l-13 2-17 1h-20l-21-2-44-7 1-10 2-19 6-39 10-73 9-61 3-20 2-1 38-2zm-12 26-16 1-2 5-2 16-6 47-5 36-4 29-2 26-2 11v5l12 2 15 1h24l16-2 12-4 10-6 8-8 6-10 6-15 6-23 5-29 2-26v-16l-2-14-6-12-8-7-11-5-4-1-13-1z" fill="#CB6BE1"/>
<path transform="translate(1469,532)" d="m0 0 22 1 32 4 25 6 20 6 25 10 24 12 14 9 16 11 16 12 10 9 8 7 11 11 7 8 11 14 12 17 13 21 8 16 7 15 10 27 7 27 4 24 2 24v16l-37 1-9-1-2-15-2-23-5-25-5-17-9-24-8-16-9-16-8-12-12-16-10-11-7-8-12-12-14-11-12-9-20-12-16-8-17-7-21-7-23-6-20-3-27-2v-46z" fill="#CB6AE1"/>
<path transform="translate(1439,884)" d="m0 0h57l37 2 5 2 1 11 7 8 5 6 2 4v6l-4 4-9 4-7 1h-23l-15-3-8-1h-21l-10 1-3 6-3 3-2-4-4 8-6 21-4 16-1 2 19 1 48 1 11 1 1 1 1 13 10 4 4 7v2l10 3 1 6-3 5-6 2h-11l-49-4-30-1-2 12-1 15-1 34-5 42-4 9-3 1h-13l-6-2-5-8-4-2-2-5 3-3-5-1-1-5-16-2 2-23 10-73 9-65 4-27 4-12 7-9 8-7 12-5zm-13 93 1 2z" fill="#CB6AE1"/>
<path transform="translate(1469,628)" d="m0 0 21 1 23 4 23 7 19 8 20 10 18 12 10 8 17 16 9 10 12 16 12 20 8 17 7 20 5 19 3 17 2 25-1 1-22 1h-23l-2-3-3-27-5-20-6-16-12-23-12-16-12-13-8-8-16-11-19-11-22-9-17-4-12-2-16-1-2-1v-46z" fill="#CB6AE1"/>
<path transform="translate(1037,840)" d="m0 0 4 1v2l4 2 5 4 11 5 16 5 7 4 7 7 1 3v121l-1 16-6 2-5 3-7-1-6-6v-2h-2v-2l-4-2-6-8v-2h-2l-7-11-8-11-10-13-10-14-10-12-13-18-10-19-6-15-2-10 5-5 9-3 23-6 16-6 5-5z" fill="#06AADE"/>
<path transform="translate(478,885)" d="m0 0h27v27h2l-1-4h2l1-5 7 3 1 6 13 3 1 1v10l-3 15-6 20-9 25-7 19-9 34-7 22-2 9v15l1 8v11l2 7-1 5-7 6-7 1h-35l-16-8-11-6-9-3-1-1v-8l3-7 2-2 16-1 12-3 6-4 5-6 3-7 4-22 2-19 6-38 9-67 5-35z" fill="#CB6AE1"/>
<path transform="translate(1728,917)" d="m0 0 8 6 12 11 6 8 4 13 2 11 1 17v14l-2 26-5 29-6 22-6 16-9 16-11 12-9 7-16 8-21 5-7 1h-27l-16-4-12-5-14-9-9-9 1-2 16 1 9 1h27l16-3 12-4 14-7 9-7 8-9 9-16 7-19 5-17 6-32 3-30v-19l-2-18z" fill="#FCFCFC"/>
<path transform="translate(1073,1055)" d="m0 0 8 2 7 19 3 12 1 5-2 9-5 12-6 8-8 8-16 8-15 3h-15l-15-3-12-6-10-9-7-8-4-8-3-15v-10l1 4 5-1 9-6 4-2 17-3 27-10 17-4 6-2 7-1z" fill="#EC8465"/>
<path transform="translate(1347,896)" d="m0 0 3 4 10 3 5 10 7 6 1 6-8 30-3 17-1 10-1 25-3 31-5 35-2 16v25l-4 13-6 6-6 2h-18l-9-3-8-6-10-9v-2h-2l-4-6 28-1 5-2 5-25 10-72 15-104z" fill="#FDFDFD"/>
<path transform="translate(1506,748)" d="m0 0h11l12 3 11 6 8 7 7 12 3 11v14l-3 11-7 11-8 8-12 6-13 3-12-1-12-4-8-6-7-7-8-16v-24l5-13 10-11 10-6z" fill="#CB6AE1"/>
<path transform="translate(1653,907)" d="m0 0h10l13 2 10 4 9 8 1 4-14-1h-17l-13 3-11 8-6 8-8 16-5 15-6 29-3 21-1 15-1 44-8-1-10-6-7-9-4-14-1-11v-17l3-30 5-27 6-21 8-16 7-9 8-7 12-5 8-2z" fill="#FDFDFD"/>
<path transform="translate(1511,989)" d="m0 0h1l1 9 10 4 4 7v2l10 3 1 6-3 5-6 2h-11l-49-4-30-1-2 12-1 15-1 34-5 42-4 9-3 1h-13l-6-2-5-8-4-2-2-5 3-3-5-1v-5l11-1 1-12 9-64 4-25 1-1 93-1v-10z" fill="#FCFCFC"/>
<path transform="translate(1201,912)" d="m0 0h3l4 15 7 18v4h-3l-1 3v30l2 8 3 10v20l-6 44-4 25-3 36-2 5-4 4h-7l-7-3-4-4v-2l-5-2-6-3v-2l3-1-3-3-5-2v-2h11l3-24 13-95 5-35 3-22z" fill="#FDFDFD"/>
<path transform="translate(388,920)" d="m0 0 7 6 7 7 7 14 3 20 1 12v23l-4 38-4 18-8 22-4 7-3 9-4 7-4 4h-5v-3l-5 1-14 8-10 4-5-1 1-2-9-1h-14l-13 1 1-2 12-2 8-5 9-4 11-7 12-12 6-10 5-10 6-18 5-20 5-30 3-25v-23z" fill="#FDFDFD"/>
<path transform="translate(504,903)" d="m0 0h1v9h2l-1-4h2l1-5 7 3 1 6 13 3 1 1v10l-3 15-6 20-9 25-7 19-9 34-7 22-2 9v15l1 8v11l2 7-1 5-7 6-7 1h-35l-16-8 4-2 15-3 12-5 5-3h2l2-4 8-11 6-18 6-39 15-105z" fill="#FDFDFD"/>
<path transform="translate(568,1039)" d="m0 0h90l-1 5-5 2-7 5-9 2-29 2-12 2-3 1-9 20-6 11-8 25-5 13-5 7h-20l-1-1-1-8-10-4 1-3h4v-3l-6-2-1-4h8l3-1 2-6 13-29 14-30z" fill="#FDFDFD"/>
<path transform="translate(1537,899)" d="m0 0h2l7 8 5 6 2 4v6l-4 4-9 4-7 1h-23l-15-3-8-1h-21l-10 1-3 6-3 3-2-4-4 8-6 21-4 16-1 2-13 1 1-15 6-40 4-9 5-6 5-2 73-1 22-1zm-111 78 1 2z" fill="#FCFBFC"/>
<path transform="translate(1013,792)" d="m0 0h6l5 5 4 9 5 22 6 12h-2l-1 4-5 5-6 3-18 6-23 6-4 3h-2v8l-3-4-1-5v-19l2-20 4-10 7-9 10-9 12-6z" fill="#FDFDFD"/>
<path transform="translate(665,913)" d="m0 0 5 3 7 18 13 38 4 25 5 32 5 27 5 33 7 25 1 3v11l-9 1-10-6-3-3-3-5-4-4 11-3-3-19-5-23-14-74-5-24-6-32-2-12v-10z" fill="#FDFDFD"/>
<path transform="translate(1070,786)" d="m0 0 10 1 8 4 5 4 5 10v13l-5 10-8 6-9 2h-7l-10-3-7-7-4-9v-11l4-9 9-8z" fill="#08AADE"/>
<path transform="translate(621,921)" d="m0 0h2l1 8 4 13-2 13-11 30-6 21-2 4 11 2v1h-38l1-6 14-31 12-26 10-21z" fill="#FDFDFD"/>
<path transform="translate(1231,907)" d="m0 0 7 6 8 8 6 9 6 16 7 22 5 15 8 33 4 12 1 9-5-3-2-1-1 2-3-5-8-23-8-21-10-29-14-41z" fill="#FDFDFD"/>
<path transform="translate(903,922)" d="m0 0 3 4 6 15 2 15-1 14-7 24-6 12h-3l-2-1v-2h-2v2l-6-2-2-4-4-4h-5v2l-8-1-10-2v-2l16-6 6-3 10-11 5-11 4-12 2-9z" fill="#FDFDFD"/>
<path transform="translate(894,1046)" d="m0 0h1v27l-8 18-8 10-9 8-12 5-26 8-13 2-18 1-21-2-11-2-2-4-3-3 2-2 62-1 15-2 12-3 10-4 9-6 6-9 6-12 5-16 2-5z" fill="#FCFBFC"/>
<path transform="translate(1059,721)" d="m0 0h12l8 4 6 8 2 7-1 8-5 8-5 4-6 2h-10l-7-3-6-7-3-6v-9l4-8 7-6z" fill="#FCFCFC"/>
<path transform="translate(773 1e3)" d="m0 0 5 1 21 1v1l-18 1 1 3-1 6 2 10v10l-3 19-2 11-3-1v7l-2 9-2 1 1 2-11 1 2-17 4-27 3-19zm-7 77 1 3h2l-1-3z" fill="#FDFDFD"/>
<path transform="translate(1e3 709)" d="m0 0h9l5 3 4 5 1 6-2 6-4 5-4 2h-7l-5-2-6-7v-9l5-7z" fill="#FDFDFD"/>
<path transform="translate(1117,752)" d="m0 0h7l6 5 1 7-6 7h-7l-6-5-1-7 3-5z" fill="#0AABDE"/>
<path transform="translate(1083,667)" d="m0 0 6 1 3 5-1 5-4 3-7-1-4-5 2-5z" fill="#FCF6F4"/>
<path transform="translate(781,948)" d="m0 0 2 3v11h2v16l-2 1-1-13-1 15-5-1z" fill="#FCFBFC"/>
<path transform="translate(893,1059)" d="m0 0h1l1 6v8l-3 7-3 1 3-15z" fill="#D07BE4"/>
<path transform="translate(1288,1059)" d="m0 0 3 3 1 9-4-1z" fill="#EBC8F3"/>
<path transform="translate(894,1046)" d="m0 0h1v19h-1v-6h-2z" fill="#FDFDFD"/>
<path transform="translate(798,1007)" d="m0 0h20v1l-19 1z" fill="#FDFDFD"/>
<path transform="translate(785,950)" d="m0 0h1v5h-1z" fill="#FDFDFD"/>
<path transform="translate(765,1118)" d="m0 0 2 1-2 1z" fill="#FDFDFD"/>
<path transform="translate(1165,1114)" d="m0 0h2l-1 2z" fill="#FDFDFD"/>
<path transform="translate(785,1008)" d="m0 0 3 1z" fill="#FDFDFD"/>
<path transform="translate(776,1066)" d="m0 0" fill="#FDFDFD"/>
<path transform="translate(1167,1117)" d="m0 0" fill="#FDFDFD"/>
<path transform="translate(1287,1057)" d="m0 0" fill="#FDFDFD"/>
<path transform="translate(789,1008)" d="m0 0" fill="#FDFDFD"/>
<path transform="translate(1449,938)" d="m0 0" fill="#FDFDFD"/>
</svg>
