<?xml version="1.0" encoding="UTF-8"?>
<svg version="1.1" viewBox="0 0 2048 775" width="396" height="150" xmlns="http://www.w3.org/2000/svg">
<path transform="translate(1054,339)" d="m0 0 7 1 7 9 5 15 5 24 5 10 8 10 11 8 16 6 16 5 8 4 9 8 3 6v279l-1 13-6 16-6 10-10 12h-109l-7-9-8-11-4-8-2-9-1-10v-329l1-11 5-12 8-12 10-10 15-10 10-4z" fill="#DF6294"/>
<path transform="translate(774,457)" d="m0 0h59l26 3 14 4 16 8 9 9 10 17v2l7 2 12 10 5 4 6 10 3 9 1 5v20l-4 23-6 17-8 14-5 6-11 8-8 3h-3l5 5 8 7 9 10 7 9 4 10 1 6v28l-2 16-5 18-8 16-7 9-4 5-6 5h-172l-4-4-2-4v-6l3-5-10-2-10-3-21-2 1-7 3-14 8-59 8-55 9-65 11-77 2-11 2-1 26-2zm91 53-1 2h2zm1 5-2 1v2l-4 2h-4l2-2h-5l-5 3-36 3-10 2-6 5-4 8-2 9-1 15 3 12 4 6 5 2 15 1 17-2 12-4 9-6 7-9 4-10 4-17v-14l-2-7zm-8 2m-3 122-32 5-12 2-26 2-9 2-2 4-4 27-2 27v11l7 1h31l15-2 12-4 9-6 6-8 5-11 5-22v-23l-2-5z" fill="#824EFA"/>
<path transform="translate(1277,460)" d="m0 0h32l7 2 7 8 11 19 2 2-2-5 4 2 1 4 4 2 4 3 8 4 6 7 9 17 13 37 13 44 14 44-1 3v-2h-2v3h-3l4 19 4 11 1 5h1l4-16 3-16 11-80 9-65 7-49 1-3 35 1 1 3v19l12-1 6 2 3 6 11 8 3 2 1 10-4 32-7 41-6 57-6 40-4 54-2 15-3 7-8 17-2 2h-45l-7-1-13-7-9-8h3l6 2 1-1-2-2-1-6-19-3-6-5-6-12-11-30-19-54-15-42-22-58-4-10-4-2 2 7v25l5 20 5 15 1 12-2 27-5 35-7 51-6 38-2 9h-35l-2-4-14-3-1-2h5l2-6 2 1 2-1-1-9-31-2-3-1 4-23 8-58 13-93 8-56 6-41 3-10 5-5zm60 33v2l2-1zm2 2m-44 7-2 17-1 10 1-3 3-1 1-6 3-1v-12l-1-4z" fill="#824EFA"/>
<path transform="translate(118,456)" d="m0 0h31l22 2 20 4 15 6 12 7 10 9 12 17 5 5 11 9 8 7 6 8 5 10 4 12 4 23 1 13v26l-3 31-5 23-8 29-8 22-13 27-8 11-11 10-11 8h-169l-1-4-4-1v-9l1-4 2-1-19-5-20-2-1-3 8-50 8-59 24-168 2-8 2-1 46-3zm77 61-2 3-9 3-40 1-17 1-9 2-3 7-3 16-7 61-10 71-6 29-2 7 1 1h43l14-3 12-5 10-7 10-10 9-15 6-16 5-18 5-24 5-34 1-15v-36l-2-12-5-7z" fill="#C572E5"/>
<path transform="translate(1870,455)" d="m0 0h25l19 2 18 5 14 7 9 7 7 6 8 11 7 10 9 6 11 9 8 7 7 11 4 10 4 26 1 23-2 26-5 32-7 31-6 23-6 16-10 19-8 10-12 12-10 8-6 3h-115l-2-9-1 7-5-2-3-2-3-9-1-2h7l6 2-7-3-27-8-16-8-12-11-8-9-8-16-4-13-3-21-1-13v-13l3-37 7-39 5-20 8-24 8-16 7-12 9-11 11-10 15-9 19-7 20-4zm107 51 2 5 2 1 1-4-4-2zm4 6m1 1m-47 4 1 4-6 2-16 1-25 5-15 5-9 6-10 9-7 10-8 19-6 21-5 24-4 33-3 33-2 16v7l-2 4 8 3 11 2h23l16-3 13-5 10-6 10-9 7-10 8-16 6-19 5-21 5-28 4-36v-28l-2-12-5-11z" fill="#5717DE"/>
<path transform="translate(541,460)" d="m0 0h41l7 4 6 12 2 7 3 1 3-1 5 5 3 6 12 5 4 5 4 10 6 29 22 111 6 29 5 33 3 30 4 23 1 6h-32l-5-4-5-2-6-1-2-2 1-4-1-1v-11l-17-1-2-2-5-25-6-29-1-2-4 2-17 2-55 3-10 2-4 5-7 15-11 25-12 24-4 6h-39l-11-4-7-2v-4l4-5 2-7 2-3-20-1h-12l6-11 18-35 36-76 38-80 16-34 13-28 8-16 7-8zm25 76v20l1 7-2 9-6 16-7 28v7l6 2 9 1h19v-11l-8-45-7-27-3-7zm-1 12m27 139 4 1zm-4 1 4 1zm-4 1m46 62m1 1 1 2zm1 2 1 3zm1 3-1 5 3 3-1-8z" fill="#C472E5"/>
<path transform="translate(1604,460)" d="m0 0h63l36 1 28 2-1 13-1 10 3 1 1-4 3 1 2 6h5v-2h2l1-2 2 10 1 3 9 6 1 3-1 9-3 7-5 2-9 2-3 1h-33l-46-1-16 2-9 4-7 8-5 14-4 18v10l8 2 69 1 1 1 2 18 1 4 3-3h5l3 2 3 1 2 9 6 5 7 3 1-2 2 3-2 14-2 6-8 2-28 3h-79l-2 1-3 12-10 73-4 20-4 16h-29l-12-5-5-1 4-1 1-15-3-1h5l-1-1-10-1-23-1 1-11 17-121 10-73 5-34 4-15 6-11 9-10 8-6 11-5z" fill="#5818DE"/>
<path transform="translate(1640,5)" d="m0 0 34 2 40 5 25 6 24 7 28 10 28 13 21 12 17 11 20 14 13 10 14 12 16 15 14 15 18 22 13 18 11 17 9 15 12 23 10 23 10 28 7 27 6 29 3 31 1 16v16l-56 1-4-1-2-13-3-33-6-31-6-22-10-28-11-24-9-17-14-22-14-18-10-13-14-15-16-16-14-11-19-14-21-13-23-12-18-8-33-11-31-8-26-4-10-1-23-1-2-1v-60z" fill="#C572E5"/>
<path transform="translate(359,460)" d="m0 0h34l3 1-1 8-2 15 13-3h5l2 2 3 9 14 5 2 2v13l-9 63-8 61-6 36-7 31-6 20-4 11-1 9-3 10 2-4 2 1-11 23-2 2h-79v-3l-5-1-7-2v-2l-4 1-3-3 2-4 2-1v-4l-12-5-11-3-1-3 4-20 2-4h20l17-3 10-5 6-7 4-9 5-30 5-36 4-33 8-55 8-57 4-25z" fill="#CBCBD0"/>
<path transform="translate(1639,129)" d="m0 0h12l29 3 24 5 36 12 24 11 23 13 17 12 11 9 12 11 14 14 9 11 13 17 12 20 12 23 10 26 6 21 5 26 4 34-1 5-40 1h-20l-2-1-4-35-5-23-7-21-11-23-10-16-12-16-12-13-6-7-8-7-13-10-25-15-19-9-22-8-18-4-26-3-12-1-1-3v-53z" fill="#824EFA"/>
<path transform="translate(1099,416)" d="m0 0 5 1 33 11 10 7 6 7 1 3v266l-1 9-2-2-13-40-10-27-11-24-9-17-14-22-11-16-9-12-14-18-13-17-14-18-5-7-3-7-9-19-4-9-1-7 3-6h2v-2l16-4 14-3 13-4 8-2 18-6 6-3h2l2-4 3-5z" fill="#09ACD9"/>
<path transform="translate(241,504)" d="m0 0 6 4 13 10 9 10 6 12 4 12 4 23 1 13v26l-3 31-5 23-8 29-8 22-13 27-8 11-11 10-11 8h-169l-1-4-4-1v-9l1-4 2-1-10-3v-1h91l27-4 17-5 17-9 11-9 8-9 7-11 9-19 7-22 7-30 5-28 3-27 1-14v-18l-3-30z" fill="#CBCAD0"/>
<path transform="translate(905,495)" d="m0 0 3 3v2l7 2 12 10 5 4 6 10 3 9 1 5v20l-4 23-6 17-8 14-5 6-11 8-8 3h-3l5 5 8 7 9 10 7 9 4 10 1 6v28l-2 16-5 18-8 16-7 9-4 5-6 5h-172l-4-4-2-4v-6l3-5-10-2-7-2v-1h104l29-4 18-6 11-7 7-8 6-10 5-13 5-23 2-16v-21l-5-14-6-10-7-7-8-5-9-3-11-2v-3l21-7 11-6 7-7 6-10 5-12 5-19 2-18z" fill="#CBC9D0"/>
<path transform="translate(1974,500)" d="m0 0 5 4 8 6 14 11 7 8 7 14 3 14 2 15 1 23-2 26-5 32-7 31-6 23-6 16-10 19-8 10-12 12-10 8-6 3h-115l-2-9-1 7-5-2-3-2-3-9-1-2h7l6 2-7-3-27-8 4-1 9 2 9 1v2h40l20-2 19-5 10-4 13-7 10-8 9-9 12-20 10-25 5-20 2-5 4-21 3-15 1-13 2-14 1-36-2-24-2-9v-8l3 3v-4h-5z" fill="#CACAD0"/>
<path transform="translate(1483,477)" d="m0 0 2 4v2l12-1 6 2 3 6 11 8 3 2 1 10-4 32-7 41-6 57-6 40-4 54-2 15-3 7-8 17-2 2h-45l-7-1-13-7-9-8h3l6 2 1-1-2-2-1-6-4-2 34-2 5-27 13-89 14-99 8-50z" fill="#CBCAD0"/>
<path transform="translate(82,489)" d="m0 0h73l15 2 13 4 11 8 7 8 3 7-1 3-2-3-6-1-2 4-9 3-40 1-17 1-9 2-4 15-8 68-10 71-6 29-2 7 33 1v1h-70l-3-1v-8l7-47 10-72 14-98z" fill="#CBCAD0"/>
<path transform="translate(359,460)" d="m0 0h34l3 1-1 8-4 31-9 56-13 91-5 33-6 29-5 13-6 10-11 11-14 7-11 3-7 1h-17l-11-2-14-4-1-3 4-20 2-4h20l17-3 10-5 6-7 4-9 5-30 5-36 4-33 8-55 8-57 4-25z" fill="#C573E5"/>
<path transform="translate(1873,489)" d="m0 0h26l16 4 9 5v2l4 1 7 8 1 3h2l1 7h2v6l-3-4-1-3-2-1 1 4-6 3-16 1-25 5-15 5-9 6-9 8-7 10-8 19-6 21-5 24-4 33-3 33-2 16v7l-3 4-10-2-6-4-7-8-6-12-3-10-2-21v-16l2-23h2v-9l5-35 2-5 2-10 3-12 5-12 8-16 7-11 11-9 17-9z" fill="#CAC9D0"/>
<path transform="translate(1691,284)" d="m0 0h11l14 3 16 8 8 6 7 10 5 10 4 13 1 11-2 13-5 12-7 11-7 8-11 7-13 5-18 2-13-2-13-5-9-6-8-8-8-13-4-11-1-8v-11l2-14 5-12 7-10 8-7 12-7 12-4z" fill="#5717DE"/>
<path transform="translate(1695,596)" d="m0 0h1l3 14 3-3h5l3 2 3 1 2 9 6 5 7 3 1-2 2 3-2 14-2 6-8 2-28 3h-79l-2 1-3 12-10 73-4 20-4 16h-29l-12-5-5-1 4-1 1-15-3-1h5l-1-1-10-1v-1h13l2-12 3-24 4-23 1-12 1-1 4-35h2v-9l3-15 1-2 119-1z" fill="#CACAD0"/>
<path transform="translate(1138,684)" d="m0 0 2 1 1 5h2l9 28 1-7h1v13l-1 13-6 16-6 10-10 12h-109l-7-9-8-11-4-8-2-9v-9l6-2 7 2v-2l5-3 9-6 18-5 16-7 8-2 31-7 16-3 13-4 3-2 3 1v-3h2z" fill="#E69983"/>
<path transform="translate(1294,495)" d="m0 0 4 1 9 23 13 38-1 4-9-23-4-2 2 7v25l5 20 5 15 1 12-2 27-5 35-7 51-6 38-2 9h-35l-2-4-14-3-1-2h5l2-6 2 1 2-1-1-10 2-1 5-30 13-92 14-100 3-26zm1 7-2 17-1 10 1-3 3-1 1-6 3-1v-12l-1-4z" fill="#CBCAD0"/>
<path transform="translate(475,659)" d="m0 0h117l3 6 4 21v7l-2-2-4 2-17 2-55 3-10 2-4 5-7 15-11 25-12 24-4 6h-39l-11-4-7-2v-4l4-5 2-7 2-2 7-2 6-10 16-33 13-28 7-16zm117 28 4 1zm-4 1 4 1z" fill="#CBCBD0"/>
<path transform="translate(591,469)" d="m0 0 3 4 3 10 3 1 3-1 5 5 3 6 12 5 4 5 4 10 6 29 22 111 6 29 5 33 3 30 4 23 1 6h-32l-5-4-5-2-6-1-2-2 1-4-1-1v-11l11-2h6l-4-24-11-53-11-58-12-64-12-59-2-12zm39 282m1 1 1 2zm1 2 1 3zm1 3-1 5 3 3-1-8z" fill="#CBCBD0"/>
<path transform="translate(1032,504)" d="m0 0 4 2v2l4 2 9 10 17 10 7 2 11-1 21-4 31-7 10-5 1-1h5l1 1 1 46v150l-1 9-2-2-13-40-10-27-11-24-9-17-14-22-11-16-9-12-14-18-13-17-14-18z" fill="#047FBA"/>
<path transform="translate(1733,483)" d="m0 0 3 1 2 6h5v-2h2l1-2 2 10 1 3 9 6 1 3-1 9-3 7-5 2-9 2-3 1h-33l-46-1-16 2-9 4-7 8-5 14-4 18v10l8 2v1h-50v-9l1-2 3-20 2-20 3-17 1-1 2-10 7-10 5-4 11-2 114-1 2-1 2-4 3 1z" fill="#CBCAD0"/>
<path transform="translate(1054,339)" d="m0 0 7 1 7 9 5 15 5 24 5 10 8 10 9 7-3 8-4 5-16 7-12 4-16 4-11 3-16 3-6 1v2h-2l-2 8 3 9 11 24 2 5h-5v2h-2v2l-7 4h-6l-1 2-5-6-1-31 1-11 6-1v-2l-8-21v-37l1-11 5-12 8-12 10-10 15-10 10-4z" fill="#57BD99"/>
<path transform="translate(1e3 436)" d="m0 0 2 3 8 20-1 3-1-2h-6v15l1 27 4 5 9-3 2-2h3l2-5 5 1 10 14 14 18 13 17 11 14 13 18 13 20 12 20 6 12-1 2-7-8-9-11-7-5-12-2h-26l-15 2-9 2-15 2-3 1h-7l-7-2-2-8z" fill="#B758A9"/>
<path transform="translate(741,613)" d="m0 0h56l23 1 14 3 12 5 6 5 5 9v5l-2-1-32 5-12 2-26 2-9 2-3 17-3 23-2 28 32 1v1h-75l-1-4 9-61 6-40z" fill="#CAC7D1"/>
<path transform="translate(759,488)" d="m0 0h49l25 1 15 2 10 4 7 6 4 10 1 12-2-1-1-6h-3v2l-4 3h-6l2-2-4 1-4 2-36 3-10 2-5 4-4 8-2 9-1 15 3 12 3 5 5 2 15 1 20-2-1 2-4 1-27 2h-59l-1-1 1-14 11-78zm106 22-1 2h2z" fill="#CAC7D1"/>
<path transform="translate(406,481)" d="m0 0h5l2 2 3 9 14 5 2 2v13l-9 63-8 61-6 36-7 31-6 20-4 11-1 9-3 10 2-4 2 1-11 23-2 2h-39l5-5 11-8 10-9 3-3 5-12 6-22 7-38 8-58 12-89 2-20v-21l-6-2-3-4v-2z" fill="#E3E2E5"/>
<path transform="translate(557,488)" d="m0 0h5l3 5 2 11 2 15 4 24v7l-2-4-3-10-1 1v19l1 7-2 9-6 16-7 28-1 7 15 2v1l-8 1h-68l-1-3 17-37 11-25 17-37 13-29 5-6z" fill="#CBCAD0"/>
<path transform="translate(1502,486)" d="m0 0h2l2 4 11 8 3 2 1 10-4 32-7 41-6 57-6 40-4 54-2 15-3 7-8 17-2 2h-45l-2-1v-2h25l4-1 4-16 7-44 10-68 12-81 7-56z" fill="#E4E3E6"/>
<path transform="translate(256,516)" d="m0 0 4 2 9 10 6 12 4 12 4 23 1 13v26l-3 31-5 23-8 29-8 22-13 27-8 11-11 10-11 8h-52l1-3 23-8 19-9 13-11 8-9 6-10 6-12 7-20 4-13 5-24 5-33 2-30v-37l-2-15-6-23z" fill="#E4E3E6"/>
<path transform="translate(1994,516)" d="m0 0 8 6 8 10 6 14 4 26 1 23-2 26-5 32-7 31-6 23-6 16-10 19-8 10-12 12-10 8-6 3h-40l1-3 18-8 15-9 13-12 8-10 10-17 10-25 6-21 7-34 3-19 1-11v-45l-1-15-6-25z" fill="#E4E3E6"/>
<path transform="translate(922,509)" d="m0 0 4 2 6 5 6 10 3 9 1 5v20l-4 23-6 17-8 14-5 6-11 8-8 3h-3l5 5 8 7 9 10 7 9 4 10 1 6v28l-2 16-5 18-8 16-7 9-4 5-6 5h-54v-2l27-9 12-7 8-7 7-11 8-19 5-26 1-9v-22l-2-9-6-9-2-4h-2v-2h-2l-6-10-6-9 2-4 11-8 9-12 8-16 5-21 2-16v-20z" fill="#E4E3E6"/>
<path transform="translate(141,510)" d="m0 0h15l21 1 9 2h7l3 4-3 4-9 3-40 1-17 1-9 2-4 15-8 68-10 71-6 29-2 7v1h-15l-2-1v-10l13-89 9-67 5-36 3-5z" fill="#E4E3E6"/>
<path transform="translate(1880,511)" d="m0 0h44l6 3 6 5v2l-6 3-16 1-25 5-15 5-9 6-9 8-7 10-8 19-6 21-5 24-4 33-3 33-2 16v7l-4 1-4-2-2-5v-3h-3l-2-15v-35l5-37 6-34 4-15 6-16 6-11 9-12 10-8 14-6z" fill="#E4E3E6"/>
<path transform="translate(1327,479)" d="m0 0 3 3 6 10-2-6 4 2 1 4 4 2 4 3 8 4 6 7 9 17 13 37 13 44 14 44-1 3v-2h-2v3h-3l4 19 4 11 1 5h1l4-16h1v13l-3 25-2 4-5-1-6-12-9-29-16-44-23-65-16-45-10-33zm10 14v2l2-1z" fill="#CDBED8"/>
<path transform="translate(1712,614)" d="m0 0 2 1 2 5 5 4 7 3 1-2 2 3-2 14-2 6-8 2-28 3h-79l-2 1-3 12-10 73-4 20-4 16h-24v-1h5l6-37 9-60 5-34 2-6 2-1h110l7-1 1-8-1-4z" fill="#E3E2E5"/>
<path transform="translate(1147,473)" d="m0 0 6 2v40h-6l-8 5-24 6-10 2-21 4-11 1-11-4-14-9-7-7-7-8-3-1-3-4-2-11 4-1 7 4 8 3 12-2 5 1 16-1 54-10 10-7z" fill="#039DD8"/>
<path transform="translate(1e3 604)" d="m0 0h1l1 8 14 1 7-2 18-2 6-2 16-1h21l12 2 9 7 9 11 5 6 3 3 8 19-1 2-9-8-4-4-11-3-6-1-5-1-5 1h-9l-6 1-3-1v2l-13 3-10 1-10 3-13 1-6 3-11-1-7-3-1-7z" fill="#CF5898"/>
<path transform="translate(606,487)" d="m0 0 2 1 3 6 12 5 4 5 4 10 6 29 22 111 6 29 5 33 3 30 4 23 1 6h-11l-3-17-2-19-5-19-3-12-7-32-8-37-7-32-7-38-5-24-6-31-4-16-4-9z" fill="#E4E3E6"/>
<path transform="translate(496,681)" d="m0 0h34l53 1 7 2 2 4-1 4-4 2-28 2-38 2-10 2-4 5-7 15-11 25-12 24-4 6h-39l-12-5v-1l10-1 11 2h6l8-13 13-29 6-13 8-18 6-12 3-3z" fill="#E4E3E6"/>
<path transform="translate(1748,499)" d="m0 0 9 5 2 4-1 9-3 7-5 2-9 2-3 1h-33l-46-1-16 2-9 4-7 8-5 14-4 18v11l-5 1h-14l-1-1 1-15 4-23 5-20 4-7 5-4 12-3h102l11-1 5-3 2-3z" fill="#E4E3E6"/>
<path transform="translate(1124,333)" d="m0 0h10l11 4 8 6 6 9 3 10v9l-4 11-6 8-7 5-11 3h-13l-11-4-8-7-5-10-2-8 1-11 6-12 7-7 8-4z" fill="#0AACD9"/>
<path transform="translate(1054,339)" d="m0 0 7 1 7 9 5 15 4 20v3l-15 3-12 5-13 4-20 4-10 3h-5l-1 13h-1v-20l1-11 5-12 8-12 10-10 15-10 10-4z" fill="#ADCE94"/>
<path transform="translate(1307,600)" d="m0 0 4 1 4 9 4 2-2 30-5 35-7 51-6 38-2 9h-35l-2-4-14-3-1-2h5l2-6 3 3 2-1 2 6 4 3 14 1 5-26 6-36 7-47 5-37 3-16z" fill="#E4E3E6"/>
<path transform="translate(1094,586)" d="m0 0 6 2v2l4 2 8 7 6 3h9l4-2 12-4 5-3h5l1-2v120l-1 9-2-2-13-40-10-27-11-24-9-17-14-22z" fill="#2A5998"/>
<path transform="translate(1099,416)" d="m0 0 5 1 18 6 4 2v9l-5 8-16 8-30 9-36 11-12 4-2 4 1 10 2 8-3-3-9-19-4-9-1-7 3-6h2v-2l16-4 14-3 13-4 8-2 18-6 6-3h2l2-4 3-5z" fill="#1AB3D2"/>
<path transform="translate(1112,248)" d="m0 0h12l10 4 6 5 6 10 1 5v8l-4 11-7 8-11 4h-14l-9-4-8-9-4-10v-9l4-9 7-8 8-5z" fill="#5ABD99"/>
<path transform="translate(776,511)" d="m0 0h62l18 2 5-2 5 1v3l-2 1v2l-4 3h-6l2-2-4 1-4 2-36 3-10 2-5 4-4 8-2 9-1 15 3 12 3 5 2 1v2h-18l-13-1v-10l7-53z" fill="#E4E3E6"/>
<path transform="translate(760,635)" d="m0 0h42l17 1v1h12l1 1 9-1h3l1 2 3 2-37 6-26 2-9 2-3 17-3 23-2 27-12-2-6-4-2 1 1-12 7-49 3-16z" fill="#E3E2E5"/>
<path transform="translate(564,523)" d="m0 0h2l1 6v27l1 7-2 9-6 16-7 28-1 7 6 1v1l-35-1-1-7 5-13 5-12 7-16 6-12 5-12 5-10 5-6 3-12z" fill="#E3E3E5"/>
<path transform="translate(1345,497)" d="m0 0 9 3 7 8 9 17 13 37 13 44 14 44-1 3v-2h-2v3l-4 1-3-16-3-11-1-8-4-6-2 2-3-7-7-16-7-18-6-16-4-11-4-14-10-30z" fill="#E4E3E6"/>
<path transform="translate(1036,232)" d="m0 0h10l8 4 6 8 1 10-4 8-8 7-3 1h-9l-6-3-7-8-2-4v-7l4-8 8-7z" fill="#ADCE94"/>
<path transform="translate(1483,477)" d="m0 0 2 4 2 5 2 1 1 7-5 5-4 26-5 32-7 49-9 65-4 26-3 12-2 4h-2l1-12 18-126 8-55z" fill="#CDBBD9"/>
<path transform="translate(1294,495)" d="m0 0 4 1 9 23 13 38-1 4-9-23-5-3-3-11-2-16-4-11-2 5-3 27-1 20-2 3v9l1 6-3 26-4 26-7 45-3 14-2 14-3 5h-1l1-13 15-107 9-66 2-14z" fill="#CDBADA"/>
<path transform="translate(1334,486)" d="m0 0 4 2 1 4 4 2 6 8 7 19 4 14v5l2 1 1 2-1 2 2 1 3 10 6 15 6 17 6 15 2 4 2 2v4l4 1 4 6 1 9 3 10 4 20-1 4-9-27-5-8-4-10-4-9-8-15-7-20-11-33-3-7-3-13-2-3-2-6-3-7-1-8h-2l-6-9z" fill="#CBCBD0"/>
<path transform="translate(1e3 459)" d="m0 0 5 1 3 3 14 30 2 5h-5v2h-2v2l-7 4h-6l-1 2-5-6-1-31 1-11z" fill="#2A5898"/>
<path transform="translate(82,489)" d="m0 0h38v1l-28 1-7 6-2 8-4 27-6 30-4 27-1 4-1 15-3 15-2 25-3 16-6 27h-1l1-13 12-86 14-98z" fill="#CEC7D7"/>
<path transform="translate(393,484)" d="m0 0h2l-1 10-3 18v13l-4 28-5 33-5 28-1 2h-2l-2 18-1 7v21l-5 26-4 12-1 5h-2l1-9 5-28 19-132 8-49z" fill="#CFC7D8"/>
<path transform="translate(1187,288)" d="m0 0h7l6 4 3 3 1 9-4 7-3 3-7 1-7-3-5-6-1-7 5-8z" fill="#53BCA0"/>
<path transform="translate(591,469)" d="m0 0 3 4 3 10 4 4 3 9v4l-3 1 2 17 8 37 6 32 7 39 7 37 1 13h-1l-12-63-12-64-12-59-2-12z" fill="#CFC7D7"/>
<path transform="translate(1300,508)" d="m0 0h1l3 21 1 6 3 1h-2l2 7v17l-1 7-2-4-4-5v-6l-2-5-5-1v-12l2-13 3-3z" fill="#CEC7D7"/>
<path transform="translate(241,504)" d="m0 0 12 8-3 1-3-2 1 10v10l1 12v18l-3 44-3 11-2 15-4 13h-1l1-10 5-28 3-27 1-14v-18l-3-30z" fill="#CFC7D7"/>
<path transform="translate(1141,179)" d="m0 0 8 1 4 4 1 7-3 5-6 4-6-2-6-6v-6l5-6z" fill="#AFCD95"/>
<path transform="translate(1974,500)" d="m0 0 5 4 8 6 7 5-2 2 1 14-3 1-2-5-4-1-1-2v38l-1 9h-1v-22l-2-24-2-9v-8l3 3v-4h-5z" fill="#C5B3DC"/>
<path transform="translate(1798,748)" d="m0 0 8 1 14 2v2h47v1l-13 2-16 1-4 8-2 1-1 7-5-2-3-2-3-9-1-2h7l6 2-7-3-27-8z" fill="#CEC7D7"/>
<path transform="translate(1294,495)" d="m0 0 4 1 9 23 13 38-1 4-9-23-5-3-3-11-2-16-4-11-2 5-3 27-2 11h-1l1-13 3-26z" fill="#C575E5"/>
<path transform="translate(1695,596)" d="m0 0h1l3 12v3h10l1 5-1 1h-136v-1l119-1z" fill="#CEC4D7"/>
<path transform="translate(1185,289)" d="m0 0h4l2 4-2 1 5 4-1 6-1 7h-5v-2h-2l-2-3-3-1 4 5 4 3-5-1-5-6-1-7 5-8z" fill="#21B5CE"/>
<path transform="translate(739,616)" d="m0 0h1l-1 32-4 18-8 48-2 1 1-11 7-48z" fill="#CCB0DB"/>
<path transform="translate(557,488)" d="m0 0h5l3 5 2 11 2 15 4 24v7l-2-4-2-5-1-16-3-12-1-9h-1l-2-10-5-1-5 3-14 29-1-3 12-26 5-6z" fill="#CEC7D7"/>
<path transform="translate(744,578)" d="m0 0h1v6l4-1 16-1h36l15 1 20-2-1 2-4 1-27 2h-59l-1-1z" fill="#CBA7DC"/>
<path transform="translate(707,751)" d="m0 0h31l71 1v1l-77 1v3l-4 1-21-6z" fill="#C996DF"/>
<path transform="translate(1353,500)" d="m0 0 7 6 10 19 13 37 1 5h-2l-9-24-2-3-1-9-3-1-7-16-6-11z" fill="#FDFDFD"/>
<path transform="translate(864,594)" d="m0 0 2 1-1 3v6l11 3 5 5 5 7-1 3-7-8-8-6-11-4-11-2v-3z" fill="#CCAEDC"/>
<path transform="translate(475,659)" d="m0 0h117v1l-22 1h-80l-4 1h-9l-5 8-4 8-1-2 6-14z" fill="#CFC7D8"/>
<path transform="translate(504,620)" d="m0 0 3 1-1 4 10-1 2-1v2h49v1l-8 1h-68l-1-3 2-2 1 3 6-1z" fill="#CEC7D7"/>
<path transform="translate(459,693)" d="m0 0 1 3-13 28-11 22-10 13-4-1-1-3 3-4 7-2 6-10 16-33z" fill="#CFC7D8"/>
<path transform="translate(1588,508)" d="m0 0 3 2v2h-2v11l-2 20-1 3-5 3 1-13 3-17 1-1z" fill="#C4ADDD"/>
<path transform="translate(1023,497)" d="m0 0 5 1 10 14 8 10-1 2-6-5-7-5v-2h-2v-2h-2v-3h-2v-3h-2l-2-5z" fill="#824EFB"/>
<path transform="translate(1e3 436)" d="m0 0 2 3 8 20-1 3-1-2h-6v11h-2z" fill="#B357B0"/>
<path transform="translate(1786,620)" d="m0 0h2l1 6-2 38v16h-1l-2-21v-16z" fill="#BA97E3"/>
<path transform="translate(1938,721)" d="m0 0h2l-2 4-5 5-10 8-13 8-13 4h-4v-2l10-4 6-2 13-7 10-8z" fill="#DACAE3"/>
<path transform="translate(235,644)" d="m0 0 3 3-2 11-5 15-4 9-2 4-1-3 6-19z" fill="#CFC7D8"/>
<path transform="translate(1798,748)" d="m0 0 8 1 14 2v2h47v1l-5 1h-34l-7 1-23-7z" fill="#A967EE"/>
<path transform="translate(1153,379)" d="m0 0 3 1-1 7-7 6-10 2v-4l8-4z" fill="#08A0D8"/>
<path transform="translate(315,751)" d="m0 0 4 1-14 4-3 3-17-3-4-2 1-2 5 1h17z" fill="#CEC7D7"/>
<path transform="translate(628,750)" d="m0 0h5v2h-2l2 5 1 7 2 4-4 1-4-3 1-4-1-1z" fill="#CFCCD6"/>
<path transform="translate(733,668)" d="m0 0 1 4-6 36-2 7h-1l1-11 5-33z" fill="#CBA9DC"/>
<path transform="translate(415,492)" d="m0 0 15 5 2 2v13l-2 2-1-10-8-7-6-3z" fill="#FDFDFD"/>
<path transform="translate(1197,291)" d="m0 0 4 2 3 5-1 9-3 2-3-12-1-2h2z" fill="#23B5CB"/>
<path transform="translate(726,714)" d="m0 0 1 4h15l4-1 1 1 28 1v1h-51l1-5z" fill="#CEC7D7"/>
<path transform="translate(1983,556)" d="m0 0h1l1 16-4 17-1-4 2-23z" fill="#CDB8DA"/>
<path transform="translate(1916,738)" d="m0 0 2 1-5 5-7 3-9 3h-4v-2l10-4 6-2z" fill="#D5C3E4"/>
<path transform="translate(1295,496)" d="m0 0 2 1 1 5-2 1-3 21-2 4 2-26z" fill="#CEC7D6"/>
<path transform="translate(890,629)" d="m0 0 4 4 4 9-1 2-1 18h-1l-1-19-4-12z" fill="#C99BDF"/>
<path transform="translate(1803,697)" d="m0 0h2v10l5 5v2l-8-4-3-5z" fill="#CBBCDA"/>
<path transform="translate(303,762)" d="m0 0 4 1 2 4-2 3v4l-5 1 2-1-3-10z" fill="#CFC7D8"/>
<path transform="translate(846,623)" d="m0 0 5 3 6 10v5l-1-2h-3l-2-3-2-9-3-2z" fill="#CA9CDF"/>
<path transform="translate(44,757)" d="m0 0h2v5h2l-1 9-4-1v-9z" fill="#E4E3E6"/>
<path transform="translate(1289,536)" d="m0 0h1v13l-2 3-1 9-2 1 1-13 2-9z" fill="#CBACDC"/>
<path transform="translate(1800,549)" d="m0 0 2 4v2 3h-2l-1 8-3 1 1-6z" fill="#C3ACDA"/>
<path transform="translate(1570,627)" d="m0 0h1l-1 20-2 5h-1v-10h2v-9z" fill="#C6AADD"/>
<path transform="translate(1370,595)" d="m0 0 3 3 5 13 2 5-1 3-5-10-4-12z" fill="#CBCBD0"/>
<path transform="translate(1756,504)" d="m0 0 3 2-1 11-2 1-1-2v-11z" fill="#CBCBD0"/>
<path transform="translate(1252,760)" d="m0 0 3 4v5l-9-1-1-2h5z" fill="#CBCAD1"/>
<path transform="translate(866,505)" d="m0 0 2 2 2 10v6l-2-1-1-6-4-2 2-1z" fill="#C99FDC"/>
<path transform="translate(396,742)" d="m0 0 3 4 5 2v1h-12z" fill="#CBC8D0"/>
<path transform="translate(726,714)" d="m0 0 1 4 15 1v1h-18l1-5z" fill="#CEBFD9"/>
<path transform="translate(1974,500)" d="m0 0 5 4 7 5v2l-8-4h-3z" fill="#B47AE8"/>
<path transform="translate(196,506)" d="m0 0 5 5 3 7-1 3-6-10z" fill="#CEC7D7"/>
<path transform="translate(1926,732)" d="m0 0 3 1-9 7-5 2 5-6z" fill="#DDD6E2"/>
<path transform="translate(889,695)" d="m0 0h1v8l-1 5-3 3-1-2z" fill="#CBACDC"/>
<path transform="translate(1977,508)" d="m0 0 2 2 1 7v8h-1l-2-9z" fill="#AA69ED"/>
<path transform="translate(1184,304)" d="m0 0h1v5h2v2l2 1-5-1-4-4v-2z" fill="#57BD99"/>
<path transform="translate(1222,745)" d="m0 0 5 2 12 1v1h-15l-3-1z" fill="#B978DC"/>
<path transform="translate(1411,656)" d="m0 0 2 3 1 9-2-4z" fill="#CBCAD1"/>
<path transform="translate(1250,753)" d="m0 0 4 1 1 4-4-2z" fill="#CEC7D6"/>
<path transform="translate(706,765)" d="m0 0 7 2v1l-7-1z" fill="#CBCBD0"/>
<path transform="translate(40,763)" d="m0 0h1l1 6h-2z" fill="#E4E3E6"/>
<path transform="translate(907,634)" d="m0 0 3 2-1 3z" fill="#E7E6E9"/>
<path transform="translate(28,767)" d="m0 0 4 1z" fill="#E4E3E6"/>
<path transform="translate(899,632)" d="m0 0 3 1h-3z" fill="#E4E3E6"/>
<path transform="translate(1979,507)" d="m0 0 2 1-1 2z" fill="#CFC7D8"/>
<path transform="translate(1539,767)" d="m0 0 3 1z" fill="#CFC7D8"/>
<path transform="translate(1414,668)" d="m0 0" fill="#CCC9D2"/>
<path transform="translate(1410,653)" d="m0 0" fill="#DBDBDE"/>
<path transform="translate(1812,758)" d="m0 0 2 1z" fill="#CFC7D8"/>
<path transform="translate(1807,756)" d="m0 0 2 1z" fill="#CFC7D8"/>
<path transform="translate(1821,768)" d="m0 0" fill="#CFC7D8"/>
<path transform="translate(719,767)" d="m0 0" fill="#CBCBD0"/>
<path transform="translate(1807,760)" d="m0 0" fill="#CFC7D8"/>
<path transform="translate(1814,759)" d="m0 0" fill="#CFC7D8"/>
<path transform="translate(1810,757)" d="m0 0" fill="#CFC7D8"/>
<path transform="translate(1403,755)" d="m0 0" fill="#CBCBD0"/>
<path transform="translate(1402,754)" d="m0 0" fill="#CBCBD0"/>
<path transform="translate(904,632)" d="m0 0" fill="#E4E3E6"/>
<path transform="translate(903,631)" d="m0 0" fill="#E4E3E6"/>
<path transform="translate(1744,485)" d="m0 0" fill="#CFC7D8"/>
<path transform="translate(1333,485)" d="m0 0" fill="#CBCBD0"/>
</svg>
